<?xml version="1.0" encoding="UTF-8" standalone="no"?>
<!-- Created with Inkscape (http://www.inkscape.org/) -->

<svg
   width="1920mm"
   height="1080mm"
   viewBox="0 0 1920 1080"
   version="1.1"
   id="svg1"
   inkscape:version="1.4 (e7c3feb100, 2024-10-09)"
   sodipodi:docname="background_mask.svg"
   xmlns:inkscape="http://www.inkscape.org/namespaces/inkscape"
   xmlns:sodipodi="http://sodipodi.sourceforge.net/DTD/sodipodi-0.dtd"
   xmlns="http://www.w3.org/2000/svg"
   xmlns:svg="http://www.w3.org/2000/svg">
  <sodipodi:namedview
     id="namedview1"
     pagecolor="#ffffff"
     bordercolor="#000000"
     borderopacity="0.25"
     inkscape:showpageshadow="2"
     inkscape:pageopacity="0.0"
     inkscape:pagecheckerboard="0"
     inkscape:deskcolor="#d1d1d1"
     inkscape:document-units="mm"
     inkscape:zoom="0.15056052"
     inkscape:cx="2905.8083"
     inkscape:cy="1839.7918"
     inkscape:window-width="1872"
     inkscape:window-height="992"
     inkscape:window-x="0"
     inkscape:window-y="0"
     inkscape:window-maximized="1"
     inkscape:current-layer="layer1" />
  <defs
     id="defs1">
    <filter
       inkscape:collect="always"
       style="color-interpolation-filters:sRGB"
       id="filter2"
       x="-0.10816241"
       y="-0.12099973"
       width="1.2163248"
       height="1.2414783">
      <feGaussianBlur
         inkscape:collect="always"
         stdDeviation="30.158542"
         id="feGaussianBlur2" />
    </filter>
  </defs>
  <g
     inkscape:label="Layer 1"
     inkscape:groupmode="layer"
     id="layer1">
    <path
       id="path1"
       style="fill:#000000;fill-opacity:0.05808761;stroke:#000000;stroke-opacity:0.39157775;stroke-width:30;stroke-dasharray:none;filter:url(#filter2)"
       d="M 363.31346 -75.174972 C 352.41586 -75.890625 339.88663 -72.665063 324.90236 -64.013896 C 229.00308 -8.6464144 375.84479 70.741993 320.47731 166.64128 C 265.10984 262.54055 122.93639 175.0665 122.9364 285.80144 C 122.9364 396.5364 265.10984 309.06181 320.47731 404.9611 C 375.84478 500.86037 229.00309 580.24932 324.90236 635.61678 C 420.80165 690.98426 416.13337 524.12126 526.86833 524.12126 C 637.60327 524.12127 632.93503 690.98426 728.8343 635.61678 C 824.73358 580.2493 677.89187 500.86038 733.25935 404.9611 C 788.62683 309.06183 930.80027 396.53639 930.80026 285.80144 C 930.80026 175.06649 788.62682 262.54056 733.25935 166.64128 C 677.89188 70.742 824.73357 -8.6464271 728.8343 -64.013896 C 632.93501 -119.38137 637.60329 47.48163 526.86833 47.481624 C 433.43572 47.48162 422.16049 -71.310443 363.31346 -75.174972 z M 526.86833 164.0249 A 121.77622 121.77622 0 0 1 648.64488 285.80144 A 121.77622 121.77622 0 0 1 526.86833 407.57747 A 121.77622 121.77622 0 0 1 405.0923 285.80144 A 121.77622 121.77622 0 0 1 526.86833 164.0249 z "
       transform="translate(433.13146,254.19867)" />
    <path
       id="rect2"
       style="fill:#ffffff;fill-opacity:1;stroke:none;stroke-width:4.99999;stroke-dasharray:none;stroke-opacity:1"
       d="M 323.84948 0 L 323.84948 1080.0002 L 1596.1506 1080.0002 L 1596.1506 0 L 323.84948 0 z M 796.44493 179.0237 C 855.29196 182.88823 866.56719 301.68029 959.9998 301.68029 C 1070.7348 301.6803 1066.0665 134.8173 1161.9658 190.18477 C 1257.865 245.55224 1111.0234 324.94067 1166.3908 420.83995 C 1221.7583 516.73923 1363.9317 429.26516 1363.9317 540.00011 C 1363.9317 650.73506 1221.7583 563.2605 1166.3908 659.15977 C 1111.0233 755.05905 1257.865 834.44797 1161.9658 889.81545 C 1066.0665 945.18293 1070.7347 778.31994 959.9998 778.31993 C 849.26484 778.31993 853.93312 945.18293 758.03383 889.81545 C 662.13456 834.44799 808.97625 755.05904 753.60878 659.15977 C 698.24131 563.26048 556.06787 650.73507 556.06787 540.00011 C 556.06786 429.26517 698.24131 516.73922 753.60878 420.83995 C 808.97626 324.94066 662.13455 245.55226 758.03383 190.18477 C 773.0181 181.53361 785.54733 178.30804 796.44493 179.0237 z M 959.9998 418.22357 A 121.77622 121.77622 0 0 0 838.22377 540.00011 A 121.77622 121.77622 0 0 0 959.9998 661.77614 A 121.77622 121.77622 0 0 0 1081.7763 540.00011 A 121.77622 121.77622 0 0 0 959.9998 418.22357 z " />
  </g>
</svg>
